<svg xmlns="http://www.w3.org/2000/svg" width="460" height="460"><path fill="#5b58ff" d="M0 0h460v460H0z"/><path fill="#fefeff" d="M221 77c5.4 4.264 9.078 10.415 13 16l1.402 1.977C238 98.73 238 98.73 238 101l3 1c1.219 1.54 1.219 1.54 2.5 3.625 3.376 5.304 7.104 10.308 10.893 15.32C258 125.786 258 125.786 258 128h2c1.367 1.793 1.367 1.793 2.875 4.188 1.741 2.718 3.439 5.192 5.5 7.687C270 142 270 142 270 145l3 1c1.363 1.563 1.363 1.563 2.742 3.57l1.543 2.22c.525.77 1.05 1.54 1.59 2.335l3.117 4.508 1.519 2.22a268 268 0 0 0 4.372 6.077C290 170 290 170 290 172l3 1c1.473 1.9 2.856 3.872 4.188 5.875q1.189 1.773 2.382 3.543l1.216 1.81c2.482 3.623 5.143 7.116 7.78 10.627C310 197 310 197 310 199l3 1c1.281 1.707 1.281 1.707 2.5 3.813 1.349 2.294 2.58 4.282 4.313 6.312 1.785 2.82 1.72 4.61 1.187 7.875-2.437 2.813-2.437 2.813-5 5l-1 1c-2.1.143-4.204.217-6.308.265l-1.996.05q-2.152.054-4.303.1-3.405.076-6.808.166-9.68.249-19.36.469-5.916.136-11.83.295-2.258.057-4.515.104c-2.105.043-4.209.098-6.313.156l-3.631.085c-3.124.1-3.124.1-5.936 2.31-2.552 11.263 1.153 23.23 4.04 34.135 1.91 7.314 3.295 14.68 4.44 22.15.768 4.779.768 4.779 3.266 8.805 4.03 1.627 7.1 1.333 11.14-.149l2.801-1.378c6.243-3.031 11.326-4.561 18.313-3.563 2.188 1.938 2.188 1.938 3 5 .02 5.592-1.436 10.665-3 16q-.39 2.31-.75 4.625c-.973 5.657-2.562 11.067-4.187 16.563-1.844 6.25-3.467 12.388-4.563 18.812-1.125 6.548-2.736 12.862-4.562 19.25l-.782 2.746C270.171 381.22 270.171 381.22 266 384c-7.047.14-10.809-3.626-16-8-3.86-3.023-7.744-5.893-11.937-8.437-3.77-2.303-7.183-4.93-10.641-7.672-3.536-2.76-7.177-5.37-10.813-7.996a382 382 0 0 1-6.422-4.77c-3.728-2.81-7.515-5.534-11.312-8.25l-1.777-1.273a257 257 0 0 0-8.438-5.79c-2.728-1.858-3.823-2.65-4.66-5.812.078-3.735.503-5.44 3-8.25 4.558-2.659 9.26-3.27 14.406-4.172 4.743-.917 8.357-1.714 11.594-5.578.646-3.423.737-5.71-1.027-8.797a106 106 0 0 0-2.684-3.527c-1.819-2.365-2.957-5.011-4.289-7.676-2.42-3.818-4.996-7.531-7.547-11.262a159 159 0 0 1-8.101-13.343c-3.151-5.583-6.696-10.946-10.286-16.254-2.72-4.135-5.214-8.39-7.71-12.662-2.217-3.744-4.612-7.091-7.356-10.479-1.02-1.852-1.02-1.852-1.812-3.625-3.538-7.352-8.219-14.053-12.938-20.687-2.447-3.45-4.426-6.865-6.25-10.688l-2.187-2.937c-2.207-3.729-2.445-5.798-1.813-10.063 1.56-2.18 1.56-2.18 4-4a45 45 0 0 1 7.55-.482l2.288-.012a467 467 0 0 1 4.908.008c2.59.017 5.178.01 7.767-.004 6.43-.03 12.858-.017 19.288-.005q8.153.013 16.305-.03c2.55-.006 5.1.01 7.651.028q2.346-.008 4.692-.02c.709.01 1.418.022 2.148.034 3.365-.042 5.128-.31 7.848-2.36 2.223-3.084 2.088-5.545 1.555-9.157-.818-4.018-1.829-7.973-2.875-11.937l-.816-3.17q-1.45-5.622-2.924-11.235c-.958-3.716-1.675-7.35-2.135-11.158-1.106-7.736-3.144-15.218-5.218-22.746C209.387 93.54 208.094 87.448 209 81c3.51-4.796 6.345-5.552 12-4"/></svg>