<?xml version="1.0"?>
<svg xmlns="http://www.w3.org/2000/svg" xmlns:android="http://schemas.android.com/apk/res/android" width="108dp" height="108dp" viewportWidth="108" viewportHeight="108">
	<path stroke="#000000" stroke-width="4.125" strokeLineCap="round" d="M56.75,45.75 L73.25,34.2"/>
	<path fill="#000000" d="M76,32.275 m-3.575,0 a3.575,3.575 0 1,1 7.15,0 a3.575,3.575 0 1,1 -7.15,0"/>
	<path fill="#000000" fill-rule="evenOdd" d="&#xA;            M40.25,45.75 h27.5 c4.565,0 8.25,3.685 8.25,8.25 v13.75 c0,4.565 -3.685,8.25 -8.25,8.25 h-27.5 c-4.565,0 -8.25,-3.685 -8.25,-8.25 v-13.75 c0,-4.565 3.685,-8.25 8.25,-8.25z&#xA;            M62.25,53.175 a7.7,7.7 0 1,0 0,15.4 a7.7,7.7 0 1,0 0,-15.4z&#xA;            M36.95,53.45 h9.625 a1.925,1.925 0 0,1 0,3.85 h-9.625 a1.925,1.925 0 0,1 0,-3.85z&#xA;            M36.95,58.95 h9.625 a1.925,1.925 0 0,1 0,3.85 h-9.625 a1.925,1.925 0 0,1 0,-3.85z&#xA;            M36.95,64.45 h9.625 a1.925,1.925 0 0,1 0,3.85 h-9.625 a1.925,1.925 0 0,1 0,-3.85z"/>
</svg>
